<svg version="1.2" xmlns="http://www.w3.org/2000/svg" viewBox="0 0 1024 1024" width="1024" height="1024">
	<style>
		.s0 { fill: #b090c9 } 
		.s1 { fill: #73644d } 
		.s2 { opacity: .99;fill: #000000 } 
		.s3 { fill: #f9b200 } 
	</style>
	<g id="Background">
		<path id="Path 0" class="s0" d="m207 545v113h451v-226h-451z"/>
		<path id="Path 0" class="s1" d="m679.39 475.5c0.01 7.7 0.16 10.63 0.35 6.5 0.19-4.13 0.19-10.43 0-14-0.19-3.57-0.35-0.2-0.35 7.5z"/>
		<path id="Path 1" fill-rule="evenodd" class="s2" d="m645.57 180.13c0.04-0.07-1.19 4.03-2.72 9.12-1.54 5.09-4.64 14.43-6.9 20.75-2.26 6.32-7.27 19.38-11.15 29-3.87 9.63-10.51 24.48-14.76 33-4.24 8.52-10.32 19.77-13.5 25-3.19 5.23-7.76 12.09-14.54 21l7.75 3.87c4.26 2.13 11.24 6.63 15.5 10 4.26 3.37 10.56 9.5 14 13.62 3.44 4.13 8.63 11.44 11.53 16.25 2.91 4.82 6.51 11.8 8 15.52 1.83 4.56 2.39 7.11 1.72 7.82-0.69 0.73-2.53-0.92-5.91-5.26-2.7-3.48-7.87-9.63-11.5-13.68-3.62-4.05-9.52-9.75-13.09-12.66-3.58-2.92-9.43-7.07-13-9.23-3.58-2.17-9.43-5.1-13-6.52-3.58-1.41-9.88-3.04-14-3.62-5.02-0.7-10.31-0.73-16-0.09-4.68 0.53-10.75 1.71-13.5 2.61-2.75 0.9-5.09 1.69-5.21 1.75-0.12 0.07 2.81 3.28 6.5 7.13 3.69 3.86 8.25 9.93 10.13 13.5 2.13 4.05 3.17 7.15 2.75 8.24-0.46 1.19-1.23 1.52-2.42 1.04-0.96-0.38-6.25-3.68-11.75-7.32-5.5-3.64-12.59-8.27-15.75-10.29-3.16-2.03-9.35-5.48-13.75-7.68-4.4-2.2-12.16-5.39-17.25-7.09-5.09-1.71-13.08-3.53-17.75-4.05-5.63-0.64-11.2-0.61-16.5 0.08-4.4 0.57-11.15 2.11-15 3.43-3.85 1.31-8.46 3.23-10.24 4.26-1.79 1.03-3.25 2.21-3.25 2.62-0.01 0.41 0.78 0.74 1.74 0.72 0.96-0.02 5.57 1.89 10.25 4.23 5.23 2.62 10.44 6.18 13.55 9.28 2.78 2.76 6.8 7.95 8.94 11.52 2.14 3.57 4.71 8.86 5.7 11.75 1 2.89 2.31 8.51 2.93 12.5 0.62 3.99 0.86 10.4 0.54 14.25-0.32 3.85-1.55 10.15-2.73 14-1.19 3.85-3 8.69-4.04 10.75-1.04 2.06-1.78 3.94-1.64 4.18 0.14 0.23 2.5-0.04 5.25-0.6 2.75-0.56 8.37-2.63 12.5-4.61 5.56-2.65 9.47-5.54 15.1-11.15 5.65-5.63 8.65-9.68 11.75-15.82 2.28-4.54 4.34-7.91 4.58-7.5 0.23 0.41 1.14 3.45 2 6.75 0.87 3.3 1.58 7.69 1.57 13.5l21.5 0.01 3.16-5.75c1.73-3.17 3.73-7.78 5.72-14.76l3.27 8.5c1.8 4.68 3.29 9.29 3.31 10.25 0.04 1.64 2.84 1.74 91.54 1.45l6 2.36c3.3 1.29 8.14 4.06 10.75 6.15 2.61 2.08 6.28 6.15 8.14 9.04 1.86 2.89 4.3 7.95 5.41 11.25 1.88 5.6 1.97 7.58 1.36 29.75-0.36 13.07-0.32 23.75 0.09 23.75 0.41 0 4.01-1.78 8-3.96 3.99-2.18 11.52-5.81 16.75-8.07 5.22-2.26 8.99-3.52 8.38-2.79-0.62 0.73-4.36 5.37-8.32 10.32-3.95 4.95-9.12 11.93-11.48 15.5-2.36 3.58-5.71 9.31-7.44 12.75-1.73 3.44-4.3 9.74-5.71 14-1.41 4.26-3.21 11.01-4 15-0.79 3.99-1.43 10.85-1.43 23.25l6.25-5.17c3.44-2.85 9.17-7.06 12.75-9.36 3.57-2.3 9.42-5.33 13-6.72 3.57-1.4 9.87-3.09 14-3.76 4.67-0.75 9.96-0.93 14-0.46 4.15 0.49 8.85 1.94 13 4.03 4.3 2.15 8.62 5.5 12.75 9.85 4.06 4.28 7.44 9.13 9.65 13.84 1.87 3.99 4.12 10.51 5 14.5 0.88 3.99 1.58 10.51 1.56 14.5-0.03 3.99-0.37 9.15-0.75 11.48-0.39 2.33-0.49 4.24-0.21 4.24 0.27 0.01 2.14-2.57 4.14-5.73 1.99-3.16 4.64-8.44 5.88-11.74 1.55-4.16 2.39-9.07 2.73-16 0.36-7.33 0.05-11.73-1.15-16.5-0.9-3.58-3.36-10.1-5.46-14.5-2.1-4.4-6.14-11.04-8.98-14.75-4.3-5.62-4.78-6.65-2.91-6.15 1.24 0.34 4.27 1.75 6.75 3.14 2.47 1.4 6.64 4.05 14 9.26l-0.62-3.25c-0.34-1.79-1.37-5.27-2.29-7.75-0.92-2.48-3.44-7.65-5.6-11.5-2.16-3.85-6.49-9.7-9.61-13-3.12-3.3-7.51-7.35-9.75-9-2.25-1.65-4.09-3.34-4.11-3.75-0.01-0.41 0.65-0.75 1.48-0.75 0.82 0 1.51-0.34 1.53-0.75 0.01-0.41-3.95-8.62-8.82-18.25-4.87-9.62-14.17-26.5-20.69-37.5-6.51-11-16.26-26.86-31.52-50.5l2.64-9.25c1.45-5.09 5-16.23 7.89-24.75 2.89-8.52 8.62-24.05 12.75-34.5 4.12-10.45 10.19-25.07 13.48-32.5 3.3-7.43 9.79-21.37 14.43-31 4.63-9.62 14.37-28.64 21.62-42.25 12.11-22.72 13.37-24.7 15.44-24.15 1.24 0.33 6.52 2.29 11.75 4.35 5.22 2.07 11.61 4.84 18.89 8.55l-6.8 11c-3.73 6.05-11.44 19.1-17.12 29-5.68 9.9-14.87 27-20.42 38-5.55 11-13.32 28.1-17.27 38-3.95 9.9-8.72 23.63-10.61 30.5-1.89 6.88-3.99 16.55-4.67 21.5-0.71 5.11-1.04 13.75-0.76 20 0.36 7.92 1.16 12.96 2.87 18 1.3 3.85 6 13.3 10.44 21 4.44 7.7 11.15 19.4 14.92 26 3.77 6.6 9.54 16.73 12.83 22.5 3.29 5.77 10.05 16.8 15.02 24.5 4.97 7.7 10.72 17.6 12.77 22 2.06 4.4 4.47 10.7 5.37 14 0.89 3.3 1.89 10.27 2.22 15.5 0.44 7.02 0.14 11.72-1.13 18-0.96 4.67-2.3 9.63-3 11-0.7 1.38-1.57 6.1-1.93 10.5-0.37 4.4-1.37 10.7-2.23 14-0.86 3.3-3.19 9.15-5.18 13-2.19 4.22-6.04 9.38-9.69 13-3.34 3.3-8.53 7.21-11.54 8.68-3.02 1.47-8.18 3.39-11.48 4.25-3.3 0.87-9.49 1.58-13.75 1.58-6.98-0.01-8.12 0.27-11.5 2.84-2.06 1.56-6.9 4.72-10.75 7.02-3.85 2.3-10.38 5.58-14.5 7.3-4.13 1.72-12 4.42-17.5 6.01-5.5 1.59-14.05 3.57-19 4.39-4.95 0.83-15.64 1.83-38.51 2.93l-4.86 8c-2.68 4.4-7.74 11.57-11.25 15.93-3.51 4.36-9.31 10.55-12.88 13.75-3.58 3.19-9.2 7.67-12.5 9.95-3.3 2.27-10.5 6.3-16 8.95-5.5 2.64-13.83 5.92-18.5 7.27-4.68 1.36-12.33 2.98-17 3.62-4.68 0.64-12.33 1.06-17 0.95-5.88-0.14-10.2 0.34-14 1.56-3.89 1.25-10.04 1.91-21 2.25-11.36 0.35-17.9 0.07-24.5-1.07-4.95-0.86-12.83-2.76-17.5-4.23-4.68-1.47-12.33-4.59-17-6.94-4.68-2.35-11.2-6.28-14.5-8.73-3.3-2.45-8.93-7.34-12.52-10.86-3.59-3.52-8.6-9.32-11.14-12.9-2.54-3.58-6.33-9.87-8.42-14-2.09-4.12-5.03-11.33-9.26-24.5l-156.66-1-5.5-2.27c-3.03-1.26-7.71-3.73-10.41-5.5-2.7-1.78-7.15-5.71-9.88-8.73-2.73-3.02-6.1-7.75-7.49-10.5-1.39-2.75-3.12-7.25-3.86-10-1.07-3.99-1.33-21.83-1.32-88 0-54.44 0.37-84.55 1.06-87.5 0.58-2.48 2.25-6.96 3.73-9.98 1.47-3.01 5.37-8.22 8.67-11.58 3.97-4.04 8.2-7.13 12.5-9.14 3.57-1.67 7.62-3.47 9-4.01 1.82-0.71 2.72-2.04 3.3-4.88 0.44-2.15 1.95-7.51 3.35-11.91 1.41-4.4 3.92-10.7 5.59-14 1.67-3.3 4.54-8.36 6.4-11.25 1.85-2.89 6.62-8.68 10.61-12.86 3.99-4.19 9.95-9.64 13.25-12.12 3.3-2.47 8.47-5.75 11.5-7.27 3.02-1.53 8.2-3.66 11.5-4.74 3.37-1.1 7.53-3.39 9.5-5.22 1.92-1.8 6.42-5.2 10-7.57 3.57-2.36 9.87-5.74 14-7.5 4.12-1.76 11.32-4.04 16-5.06 5.64-1.24 12.54-1.87 20.5-1.88 9.04-0.01 14.59 0.57 22.5 2.36 5.77 1.3 14.1 3.83 26.5 8.87l3.5-2.2c1.92-1.21 7.1-3.93 11.5-6.05 4.4-2.13 11.6-4.82 16-6 4.78-1.27 12.63-2.36 19.5-2.69 8.64-0.42 13.74-0.14 20.5 1.16 4.95 0.94 12.82 3.07 17.5 4.73 4.67 1.66 10.64 4.09 18 7.79l8.25-2.75c4.54-1.51 11.62-4.94 15.75-7.61 4.12-2.68 11.1-8.56 15.5-13.07 4.4-4.52 10.56-11.78 13.68-16.14 3.13-4.36 7.98-11.75 10.78-16.43 2.8-4.68 8.19-14.57 11.96-22 3.78-7.43 9.8-20.47 13.39-29 3.58-8.52 8.24-19.76 10.35-24.97 3.79-9.35 3.89-9.48 7.84-10.24 2.2-0.43 7.82-1.17 12.5-1.65 4.67-0.48 8.53-0.93 8.57-1.01zm-146.07 262.95c-3.85 2.51-8.58 5.31-10.5 6.2-1.93 0.9-5.98 2.59-9 3.76-3.03 1.18-8.76 2.77-12.75 3.55-3.99 0.78-9.5 1.41-12.25 1.41-2.75 0-8.04-0.71-11.75-1.57-3.71-0.87-9.23-2.89-12.25-4.5-3.03-1.62-5.73-2.57-6-2.13-0.28 0.44-2.58 3.71-5.13 7.25-2.55 3.55-6.21 9.6-8.14 13.45-1.92 3.85-4.93 11.05-6.67 16-1.75 4.95-3.61 12.15-4.13 16-0.52 3.85-1.2 9.25-1.52 12-0.32 2.75-1.1 6.25-1.74 7.77-0.64 1.52-1.85 2.89-2.67 3.04-0.83 0.15-3.3-0.06-5.5-0.46-2.2-0.41-5.24-1.67-6.75-2.8-1.51-1.13-3.2-2.05-3.75-2.05-0.55 0-4.04-3.31-7.75-7.36-3.71-4.05-9-11.13-11.75-15.72-2.75-4.6-6.43-12.2-8.19-16.89-1.75-4.69-3.9-11.23-4.78-14.53-0.88-3.3-2.12-10.27-2.75-15.5l-1.16-9.5-41.12 0.51c-7.54 8.13-11.64 13.42-13.96 16.99-2.33 3.58-5.71 9.88-7.52 14-1.82 4.13-4.19 10.65-5.28 14.5-1.4 4.93-1.95 9.66-1.84 16 0.11 6.37-0.22 9.21-1.13 9.73-0.7 0.41-2.85 0.75-4.77 0.77-2.21 0.02-5.24-1.08-8.25-2.99-2.63-1.67-6.79-5.8-9.32-9.26-2.52-3.44-6.75-10.75-9.4-16.25-2.66-5.5-5.77-13.6-6.92-18-1.14-4.4-2.43-11.45-2.85-15.66l-0.76-7.66c-4.26 2.19-7.55 4.73-10.05 7.07-2.65 2.47-5.27 6.14-6.25 8.75-1.55 4.1-1.7 11.81-1.7 86v81.5c4.14 8.53 7.4 12.91 9.92 15.25 2.52 2.34 6.49 5.26 8.83 6.5l4.25 2.25c260.01 0 335.5-0.11 335.5-0.25 0-0.14-2.77-3.96-6.16-8.5-3.39-4.54-8.09-12.3-10.43-17.25-2.34-4.95-4.95-11.7-5.78-15-0.84-3.3-1.81-8.25-2.16-11-0.36-2.86-0.17-6.18 0.45-7.75 0.59-1.51 2.23-3.31 3.63-4 2.33-1.14 3.77-0.63 16.75 5.97 7.81 3.97 17.57 8.24 21.7 9.5 6.49 1.97 9.58 2.27 23 2.2 14.02-0.06 16.26-0.33 23.5-2.74 4.4-1.47 9.8-3.7 12-4.96l4-2.28c0.47-121.27 0.28-131.72-1-136.19-1.08-3.79-2.96-6.79-6.75-10.82-3.77-4-6.8-6.15-10.75-7.61-5.36-1.99-7.07-2.04-65.5-1.68l-59.99 0.36zm-75.76 230.49c3.17 1.41 9.35 3.43 13.75 4.49 4.4 1.06 12.28 2.04 17.5 2.18 7.96 0.22 9.48 0.02 9.34-1.24-0.09-0.82-0.43-3.18-0.75-5.25l-0.59-3.75c-34.87 0-45 0.23-45 0.5 0 0.28 2.59 1.66 5.75 3.07z"/>
		<path id="Path 2" class="s1" d="m419.93 688.55c0.04 0.25 1.42 2.48 3.07 4.95 1.65 2.48 4.46 5.57 6.25 6.89 1.79 1.31 5.61 3.56 8.5 5 2.89 1.43 9.19 3.55 14 4.71 7.03 1.68 11.14 2.02 20.92 1.75 6.69-0.19 12.42-0.57 12.74-0.85 0.32-0.27-1.45-4.1-3.93-8.5l-4.51-8c-22.63 0.56-27.93 0.16-36.47-1.49-6.05-1.17-13.17-2.75-15.82-3.52-2.66-0.76-4.79-1.18-4.75-0.94z"/>
		<path id="Path 3" class="s3" d="m574.75 669.72l-12.75 0.28-4.17 9.5c-4.54-5.42-5.85-7.34-5.84-7.75 0-0.41-15.97-0.75-35.49-0.75h-35.5c0.98 3.49 2.61 7.2 4.26 10.5 1.65 3.3 4.4 8.02 6.1 10.5 1.7 2.47 6.09 7.65 9.77 11.5 3.68 3.85 9.76 8.84 13.53 11.09 3.76 2.25 9.54 5.1 12.84 6.34 3.32 1.25 9.35 2.49 13.5 2.77 5.03 0.34 9.72-0.02 14.25-1.1 3.71-0.88 8.55-2.5 10.75-3.6 2.2-1.1 5.86-3.69 8.13-5.75 2.28-2.06 5.54-5.78 7.25-8.25l3.12-4.5 1 8.63c12.4-9.19 17.18-13.15 18.63-14.74 1.44-1.59 5.15-6.15 8.25-10.14 3.09-3.99 5.62-7.7 5.62-8.25 0-0.55-0.9-1-2-1-1.1 0-6.16-1.34-11.25-2.98-5.17-1.67-11.01-2.9-13.25-2.79-2.2 0.11-9.74 0.33-16.75 0.49z"/>
		<path id="Path 4" class="s1" d="m707 570.32c-1.38 0.72-3.63 2.03-5 2.92-1.38 0.89-5.58 5.29-9.35 9.77-3.77 4.48-10.52 11.04-15 14.56-4.48 3.53-12.2 8.44-17.15 10.92-5.02 2.51-13.42 5.62-19 7.02-5.5 1.38-14.95 3-21 3.58-7.84 0.76-13.87 0.76-21-0.02-5.5-0.59-13.38-1.99-17.5-3.09-4.13-1.11-7.73-1.78-8-1.5-0.27 0.29 1.3 2.07 3.5 3.96 2.2 1.9 6.7 4.81 10 6.46 3.3 1.66 9.37 3.9 13.5 4.98 4.12 1.07 11.77 2.16 17 2.41 5.23 0.26 13.55 0.05 18.5-0.45 4.95-0.5 13.5-1.82 19-2.93 5.5-1.11 14.73-3.58 20.5-5.48 5.77-1.91 15.9-6.15 22.5-9.42 6.6-3.28 15.35-8.56 19.44-11.74 4.09-3.17 9.02-8.02 10.95-10.77 2.15-3.06 3.67-6.55 3.93-9 0.34-3.3-0.09-4.59-2.45-7.38-1.58-1.86-4.11-4-5.62-4.75-1.51-0.76-5.56-1.37-9-1.36-3.44 0-7.38 0.59-8.75 1.31zm-419.09-203.17c-6.73 3.32-10.11 5.87-16.91 12.75-5.41 5.48-10.03 11.33-12.7 16.1-2.31 4.13-5.63 11.77-7.37 17-2.4 7.18-3.3 11.94-3.69 19.5-0.28 5.5-0.23 13.04 0.12 16.75 0.35 3.71 0.98 6.57 1.39 6.35 0.41-0.22 0.82 1.25 0.91 3.25 0.08 2.01 1.31 6.12 2.74 9.15l2.58 5.5c0.3-13.95 0.51-19.35 0.65-21 0.13-1.65 1.12-7.05 2.2-12 1.07-4.95 2.93-11.93 4.13-15.5 1.2-3.58 3.56-8.98 5.23-12 1.68-3.03 5.36-8.62 8.18-12.44 2.82-3.81 7.83-9.17 11.13-11.91 3.3-2.74 8.7-6.25 12-7.8 3.3-1.56 9.37-3.57 13.5-4.47 4.53-0.99 9.18-1.39 11.75-1.01 2.34 0.35 4.25 0.29 4.26-0.12 0-0.41-1.35-2.44-3-4.5-2.06-2.56-4.75-4.38-8.51-5.75-3.63-1.32-8-2-12.84-2-6.58 0-8.2 0.42-15.75 4.15zm119.09-7.88c-1.93 0.71-5.53 2.47-8 3.9-2.48 1.44-6.93 5.03-9.9 7.97-2.96 2.95-6.84 7.61-8.61 10.36-1.77 2.75-4.47 7.47-6 10.5-1.53 3.02-3.78 8.42-5.01 12-1.23 3.57-3.03 11.22-4 17-1.35 7.98-1.63 13.37-1.17 22.5 0.36 7.2 1.48 15.4 2.79 20.5 1.2 4.67 2.8 9.96 3.54 11.75 0.75 1.79 1.81 3.25 2.36 3.25 0.55 0 0.8 0.34 0.56 0.75-0.25 0.41 0.44 2.1 1.52 3.75l1.97 3c-0.76-6.2-1.23-11.38-1.54-15.5-0.31-4.13-0.07-13.8 0.54-21.5 0.64-8.01 2.17-18.06 3.57-23.5 1.35-5.23 4.43-13.55 6.86-18.5 2.76-5.63 6.61-11.43 10.29-15.5 3.24-3.58 8.32-8.15 11.31-10.17 2.98-2.02 8.57-4.88 12.42-6.34 4.73-1.81 9.11-2.71 13.5-2.79 4.56-0.09 7.76 0.46 10.71 1.84 2.31 1.08 4.24 1.73 4.29 1.46 0.04-0.28-1.4-2.75-3.21-5.49-2.6-3.95-4.74-5.73-10.2-8.5-6.18-3.14-7.86-3.54-16-3.77-5.6-0.17-10.43 0.23-12.59 1.03z"/>
		<path id="Path 5" class="s3" d="m344 339.86c-3.57 1.01-9.54 3.37-13.26 5.24-3.72 1.87-6.77 3.63-6.77 3.9-0.01 0.27 1.57 1.29 3.51 2.25 1.94 0.96 5.8 3.89 8.6 6.5 2.79 2.61 6.83 7.45 8.98 10.75 2.15 3.3 5 9.15 6.33 13l2.43 7c3.85-7.75 6.97-12.7 9.41-16 2.45-3.3 7.33-8.84 10.86-12.3 3.52-3.47 9.23-8.19 12.68-10.5 3.45-2.31 6.26-4.43 6.26-4.7-0.01-0.27-3.73-1.85-8.28-3.49-7.34-2.66-9.68-3.02-21.25-3.24-10.16-0.19-14.42 0.16-19.5 1.59z"/>
		<path id="Path 6" class="s3" d="m651.12 179.91l-5.38 0.59c-5.02 16.28-8.61 26.85-11.22 34-2.61 7.15-7.42 19.53-10.7 27.5-3.27 7.97-9.03 20.8-12.8 28.5-3.77 7.7-9.53 18.5-12.81 24-3.27 5.5-8.14 12.99-10.83 16.64l-4.88 6.65c10.85 5.48 16.92 9.28 20.5 11.99 3.58 2.7 9.39 8.02 12.92 11.82 3.52 3.79 8.52 10.05 11.11 13.9 2.58 3.85 6.27 10.15 8.19 14 1.93 3.85 4.05 8.8 4.73 11 0.67 2.2 0.84 4.37 0.39 4.81-0.46 0.45-3.99-3.15-7.84-8-3.85-4.84-10.4-12.18-14.56-16.31-4.17-4.12-10.92-9.82-15.01-12.66-4.09-2.84-10.35-6.54-13.93-8.22-3.58-1.67-9.2-3.74-12.5-4.59-3.34-0.86-10.2-1.54-15.5-1.54-6.42 0-12.09 0.67-17.5 2.08-4.4 1.15-8.11 2.28-8.25 2.51-0.14 0.23 2.06 2.56 4.88 5.17 2.82 2.61 6.95 7.45 9.18 10.75 2.22 3.3 4.62 7.35 5.33 9 1 2.35 1.02 3.26 0.07 4.19-0.66 0.65-1.88 0.91-2.71 0.57-0.83-0.33-8.02-4.9-16-10.14-7.98-5.25-18.55-11.67-23.5-14.27-4.95-2.6-13.27-6.18-18.5-7.96-8.18-2.78-11.24-3.29-22-3.66-7.61-0.27-14.85 0.03-18.5 0.77-3.3 0.66-8.25 2.06-11 3.1-2.75 1.03-6.57 2.84-8.5 4.02l-3.5 2.13c8.52 2.59 13.7 4.96 17 6.93 3.3 1.97 8.38 6.22 11.28 9.45 2.9 3.23 7.07 9.47 9.27 13.87 2.19 4.4 4.7 11.38 5.57 15.5 1.09 5.16 1.43 10.46 1.09 17-0.35 6.64-1.31 11.91-3.2 17.5-1.48 4.4-3.34 8.9-4.11 10-0.78 1.1-1.4 2.23-1.39 2.5 0.02 0.27 2.16 0.17 4.76-0.24 2.6-0.41 8.33-2.52 12.73-4.7 4.4-2.18 10.43-6.12 13.41-8.76 2.97-2.64 7.22-7.5 9.43-10.8 2.22-3.3 5.03-8.25 6.26-11l2.22-5c2.62 6.2 3.67 11.04 4.03 14.76l0.65 6.76 21 0.03c5.64-11.28 7.6-15.9 8.01-17.55l0.73-3c2.75 6.2 4.39 10.87 5.41 14.37l1.85 6.38 91-0.82c9.62 3.93 14.46 6.76 16.96 8.82 2.49 2.06 6.12 6.11 8.04 9 1.93 2.89 4.47 8.18 5.65 11.75 2 6.06 2.12 8.07 1.75 29.75-0.22 12.78-0.17 23.13 0.1 22.99 0.27-0.14 5-2.57 10.5-5.39 5.5-2.82 12.92-6.33 16.5-7.81l6.5-2.68c-4.25 5.15-8.07 10.02-11.24 14.14-3.16 4.13-7.15 9.52-8.86 12-1.71 2.48-5.14 8.55-7.61 13.5-2.48 4.95-5.47 11.92-6.65 15.5-1.18 3.58-2.74 9.65-3.48 13.5-0.74 3.85-1.46 10.83-1.61 15.5l-0.26 8.5c9.85-8.73 15.63-13.13 19.21-15.41 3.58-2.29 9.42-5.25 13-6.59 3.58-1.33 8.52-2.87 11-3.42 2.48-0.54 8.55-0.87 13.5-0.73 7.2 0.21 10.1 0.77 14.5 2.82 3.02 1.41 7.38 4.09 9.68 5.95 2.3 1.86 5.95 5.63 8.12 8.38 2.17 2.75 5.06 7.25 6.43 10 1.37 2.75 3.34 7.48 4.38 10.5 1.52 4.41 1.89 8.4 1.89 20.11v14.62c3.78-5.6 5.89-9.48 7.14-12.23 1.25-2.75 2.96-7.7 3.82-11 0.85-3.3 1.54-9.37 1.53-13.5-0.02-4.12-0.72-10.2-1.57-13.5-0.86-3.3-3.27-9.6-5.37-14-2.1-4.4-6.12-11.04-8.93-14.75-4.28-5.65-4.75-6.65-2.87-6.15 1.24 0.34 5.17 2.2 8.75 4.14 3.58 1.94 7.77 4.7 9.33 6.14l2.82 2.62c-1.1-4.65-2.09-8.02-2.9-10.5-0.82-2.48-2.39-6.3-3.51-8.5-1.11-2.2-3.69-6.48-5.74-9.5-2.04-3.02-6.36-7.93-9.61-10.9-3.24-2.97-6.9-6-8.14-6.75-1.24-0.74-2.25-1.8-2.25-2.35 0-0.55 0.67-1 1.5-1 0.83 0 1.5-0.23 1.5-0.5 0-0.27-3.43-7.36-7.61-15.75-4.19-8.39-11.73-22.34-16.75-31.01-5.03-8.67-10.64-18.34-12.48-21.5-1.84-3.16-8.01-12.94-13.71-21.74-5.71-8.8-10.4-16.45-10.42-17-0.03-0.55 2.48-9.1 5.57-19 3.09-9.9 5.69-18.45 5.79-19 0.09-0.55 0.45-1.45 0.81-2 0.35-0.55 2.19-5.27 4.09-10.5 1.9-5.23 6.38-16.7 9.95-25.5 3.58-8.8 9.76-23.2 13.75-32 3.99-8.8 11.3-24.1 16.25-34 4.96-9.9 13.68-26.66 19.38-37.25 5.71-10.59 10.27-19.44 10.13-19.66-0.14-0.23-6.77-2.02-14.75-3.99-7.98-1.96-20.35-4.45-27.5-5.52-7.15-1.08-18.74-2.44-25.75-3.02-7.01-0.58-23.66-0.99-37-0.9-13.34 0.09-26.67 0.43-29.63 0.75z"/>
	</g>
</svg>